# AST/ASF file generated using VICON BodyLanguage
# -----------------------------------------------
:version 1.10
:name VICON
:units
  mass 1.0
  length 0.45
  angle deg
:documentation
   .ast/.asf automatically generated from VICON data using
   VICON BodyBuilder and BodyLanguage model FoxedUp or BRILLIANT.MOD
:root
   order TX TY TZ RX RY RZ
   axis XYZ
   position 0 0 0  
   orientation 0 0 0 
:bonedata
  begin
     id 1 
     name lhipjoint
     direction 0.692814 -0.645514 0.321437 
     length 2.38754 
     axis 0 0 0  XYZ
  end
  begin
     id 2 
     name lfemur
     direction 0.34202 -0.939693 0  
     length 6.41921  
     axis 0 0 20  XYZ
    dof rx ry rz
    limits (-160.0 20.0)
           (-70.0 70.0)
           (-60.0 70.0)
  end
  begin
     id 3 
     name ltibia
     direction 0.34202 -0.939693 0   
     length 6.98247   
     axis 0 0 20   XYZ
    dof rx
    limits (-10.0 170.0)
  end
  begin
     id 4 
     name lfoot
     direction 0.0947186 -0.260237 0.960888   
     length 1.83034   
     axis -90 7.62852e-016 20   XYZ
    dof rx rz
    limits (-45.0 90.0)
           (-70.0 20.0)
  end
  begin
     id 5 
     name ltoes
     direction 1.53538e-011 -4.21952e-011 1   
     length 0.920499   
     axis -90 7.62852e-016 20   XYZ
    dof rx
    limits (-90.0 20.0)
  end
  begin
     id 6 
     name rhipjoint
     direction -0.631686 -0.693949 0.345555   
     length 2.2209  
     axis 0 0 0  XYZ 
  end
  begin
     id 7 
     name rfemur
     direction -0.34202 -0.939693 0   
     length 6.49542   
     axis 0 0 -20   XYZ
    dof rx ry rz
    limits (-160.0 20.0)
           (-70.0 70.0)
           (-70.0 60.0)
  end
  begin
     id 8 
     name rtibia
     direction -0.34202 -0.939693 0   
     length 7.21712   
     axis 0 0 -20   XYZ
    dof rx
    limits (-10.0 170.0)
 end
 begin
     id 9 
     name rfoot
     direction -0.0825378 -0.226771 0.970444   
     length 1.89724  
     axis -90 -7.62852e-016 -20   XYZ
    dof rx rz
    limits (-45.0 90.0)
           (-20.0 70.0)
  end
  begin
     id 10 
     name rtoes
     direction -1.53515e-011 -4.22016e-011 1   
     length 0.955868   
     axis -90 -7.62852e-016 -20   XYZ
    dof rx
    limits (-90.0 20.0)
  end
  begin
     id 11 
     name lowerback
     direction -0.0104711 0.984802 -0.173368   
     length 1.84931   
     axis 0 0 0   XYZ
    dof rx ry rz
    limits (-20.0 45.0)
           (-30.0 30.0)
           (-30.0 30.0)
  end
  begin
     id 12 
     name upperback
     direction -0.00286433 0.999996 -0.000382853   
     length 1.85768   
     axis 0 0 0   XYZ
    dof rx ry rz
    limits (-20.0 45.0)
           (-30.0 30.0)
           (-30.0 30.0)
  end
  begin
     id 13 
     name thorax
     direction 0.00167534 0.996793 0.0800069   
     length 1.92   
     axis 0 0 0   XYZ
    dof rx ry rz
    limits (-20.0 45.0)
           (-30.0 30.0)
           (-30.0 30.0)
  end
  begin
     id 14 
     name lowerneck
     direction -0.0672491 0.995415 0.068018   
     length 1.58923   
     axis 0 0 0   XYZ
    dof rx ry rz
    limits (-20.0 45.0)
           (-30.0 30.0)
           (-30.0 30.0)
  end
  begin
     id 15 
     name upperneck
     direction 0.0958019 0.982476 -0.159884   
     length 1.60189   
     axis 0 0 0   XYZ
    dof rx ry rz
    limits (-20.0 45.0)
           (-30.0 30.0)
           (-30.0 30.0)
  end
  begin
     id 16
     name head
     direction 0.032989 0.997338 -0.0650226  
     length 1.61681  
     axis 0 0 0   XYZ
    dof rx ry rz
    limits (-20.0 45.0)
           (-30.0 30.0)
           (-30.0 30.0)
  end
  begin
     id 17 
     name lclavicle
     direction 0.954279 0.298875 -0.00496069  
     length 2.99449  
     axis 0 0 0   XYZ
    dof ry rz
    limits (-20.0 10.0)
           (0.0 20.0)
  end
  begin
     id 18 
     name lhumerus
     direction 1 -4.48985e-011 -4.2057e-027   
     length 4.79185   
     axis 180 -30 -90   XYZ
    dof rx ry rz
    limits (-60.0 90.0)
           (-90.0 90.0)
           (-90.0 90.0)
  end
  begin
     id 19
     name lradius
     direction 1 -4.48945e-011 1.15441e-028   
     length 2.65553   
     axis 180 -30 -90   XYZ
    dof rx
    limits (-10.0 170.0)
  end
  begin
     id 20
     name lwrist
     direction 1 -4.4899e-011 4.8894e-028   
     length 1.32777   
     axis -2.56392e-016 90 90   XYZ
    dof ry
    limits (-180.0 0.0)
 end
  begin
     id 21 
     name lhand
     direction 1 -4.48908e-011 9.7788e-028   
     length 0.743904   
     axis -6.23971e-016 90 90   XYZ
    dof rx rz
    limits (-90.0 90.0)
           (-45.0 45.0)
  end
  begin
     id 22 
     name lfingers
     direction 1 -4.49068e-011 1.95576e-027   
     length 0.599754   
     axis -1.24794e-015 90 90   XYZ
    dof rx
    limits (0.0 90.0)
  end
  begin
     id 23
     name lthumb
     direction 0.707107 -6.34883e-011 0.707107   
     length 0.861131   
     axis -90 45 2.85299e-015   XYZ
    dof rx rz
    limits (-45.0 45.0)
           (-45.0 45.0)
  end
  begin
     id 24 
     name rclavicle
     direction -0.957921 0.286916 0.00811568   
     length 3.06817  
     axis 0 0 0   XYZ 
    dof ry rz
    limits (-10.0 20.0)
           (-20.0 0.0)
  end
  begin
     id 25 
     name rhumerus
     direction -1 -4.48971e-011 -3.07942e-027  
     length 4.77254   
     axis 180 30 90   XYZ
    dof rx ry rz
    limits (-90.0 60.0)
           (-90.0 90.0)
           (-90.0 90.0)
  end
  begin
     id 26 
     name rradius
     direction -1 -4.48957e-011 -9.6815e-028   
     length 2.75995   
     axis 180 30 90   XYZ
    dof rx
    limits (-10.0 170.0)
  end
  begin
     id 27 
     name rwrist
     direction -1 -4.48979e-011 4.8894e-028   
     length 1.37997   
     axis -2.56392e-016 -90 -90   XYZ
    dof ry
    limits (-180.0 0.0)
  end
  begin
     id 28
     name rhand
     direction -1 -4.48906e-011 9.7788e-028   
     length 0.701619   
     axis -6.23971e-016 -90 -90   XYZ
    dof rx rz
    limits (-90.0 90.0)
           (-45.0 45.0)
  end
  begin
     id 29
     name rfingers
     direction -1 -4.49018e-011 1.95576e-027   
     length 0.565663   
     axis -1.24794e-015 -90 -90   XYZ
    dof rx
    limits (0.0 90.0)
  end
  begin
     id 30
     name rthumb
     direction -0.707107 -6.34881e-011 0.707107   
     length 0.812183   
     axis -90 -45 -2.85299e-015   XYZ
    dof rx rz
    limits (-45.0 45.0)
           (-45.0 45.0)
  end
:hierarchy
  begin
    root lhipjoint rhipjoint lowerback
    lhipjoint lfemur
    lfemur ltibia
    ltibia lfoot
    lfoot ltoes
    rhipjoint rfemur
    rfemur rtibia
    rtibia rfoot
    rfoot rtoes
    lowerback upperback
    upperback thorax
    thorax lowerneck lclavicle rclavicle
    lowerneck upperneck
    upperneck head
    lclavicle lhumerus
    lhumerus lradius
    lradius lwrist
    lwrist lhand lthumb
    lhand lfingers
    rclavicle rhumerus
    rhumerus rradius
    rradius rwrist
    rwrist rhand rthumb
    rhand rfingers
  end

#!OML:ASF F:\VICON\USERDATA\INSTALL\rory3\rory3.ASF
:FULLY-SPECIFIED
:DEGREES
979
root -0.0739748 14.9649 -0.898813 -3.88685 2.15974 -3.41278
lowerback 17.0975 0.43514 -9.95769
upperback 5.84833 -1.5882 -11.5401
thorax -3.33144 -0.753152 -6.53718
lowerneck -1.8364 -9.64138 -19.0285
upperneck 1.95811 -13.7327 24.3938
head 4.05525 -6.73422 10.0721
rclavicle -1.59028e-015 -3.18055e-014
rhumerus -24.5938 30.0694 -4.4679
rradius 148.799
rwrist -64.6631
rhand 32.0853 13.5882
rfingers 7.12502
rthumb 55.5713 -4.12899
lclavicle -1.59028e-015 -3.18055e-014
lhumerus -63.453 -30.2576 46.8887
lradius 144.122
lwrist 96.251
lhand 25.7747 38.175
lfingers 7.12502
lthumb 49.8714 59.465
rfemur -18.0214 0.207306 20.8006
rtibia 50.1963
rfoot -23.0608 -6.77988
rtoes -18.3779
lfemur -19.1083 1.42719 -10.2449
ltibia 49.6416
lfoot -19.1589 -10.0714
ltoes -7.8641
980
root -0.0678782 14.9496 -0.897522 -4.07435 2.03889 -3.28899
lowerback 17.1754 0.518816 -10.1721
upperback 5.85289 -1.53008 -11.5819
thorax -3.35888 -0.724726 -6.47825
lowerneck -1.59324 -9.6485 -19.2139
upperneck 1.83459 -13.7864 24.7187
head 4.03266 -6.779 10.2258
rclavicle 1.74931e-014 1.17681e-013
rhumerus -23.2587 28.0719 -2.84962
rradius 148.656
rwrist -64.6966
rhand 31.1656 13.5893
rfingers 7.12502
rthumb 54.7517 -4.72744
lclavicle 1.74931e-014 1.17681e-013
lhumerus -63.201 -28.8573 46.9382
lradius 143.301
lwrist 95.9423
lhand 26.224 38.46
lfingers 7.12502
lthumb 50.2825 59.5331
rfemur -17.9859 0.325662 20.6595
rtibia 50.4883
rfoot -23.1389 -6.78777
rtoes -18.382
lfemur -18.9452 1.50565 -10.3671
ltibia 49.8078
lfoot -19.1729 -10.269
ltoes -7.0668
981
root -0.0627427 14.9358 -0.895923 -4.33186 1.86526 -3.4193
lowerback 17.2458 0.58345 -10.1304
upperback 5.90311 -1.44544 -11.5876
thorax -3.33946 -0.684386 -6.5265
lowerneck -1.54523 -9.68202 -19.2028
upperneck 1.8239 -13.8525 24.8337
head 4.04614 -6.81467 10.2589
rclavicle 1.27222e-014 4.77083e-014
rhumerus -21.956 26.174 -1.34079
rradius 148.29
rwrist -65.4879
rhand 29.9597 13.1287
rfingers 7.12502
rthumb 53.6707 -5.92954
lclavicle 1.27222e-014 4.77083e-014
lhumerus -62.9488 -27.2943 46.8924
lradius 142.337
lwrist 95.7659
lhand 26.4755 38.8612
lfingers 7.12502
lthumb 50.5122 59.8108
rfemur -17.8947 0.499945 20.8167
rtibia 50.7744
rfoot -23.2357 -6.71881
rtoes -18.0159
lfemur -18.709 1.66388 -10.1791
ltibia 49.9606
lfoot -19.2812 -10.4807
ltoes -7.03006
982
root -0.0608433 14.9232 -0.895048 -4.59395 1.68372 -3.44049
lowerback 17.3515 0.645484 -10.2427
upperback 5.95101 -1.39789 -11.622
thorax -3.3384 -0.662259 -6.51442
lowerneck -1.52154 -9.72165 -19.1843
upperneck 1.71099 -13.907 24.9498
head 4.03185 -6.84535 10.2909
rclavicle -2.06736e-014 -1.33583e-013
rhumerus -20.7221 24.4696 -0.0663451
rradius 147.769
rwrist -66.793
rhand 29.1844 12.6986
rfingers 7.12502
rthumb 52.9722 -6.81134
lclavicle -2.06736e-014 -1.33583e-013
lhumerus -62.696 -25.7237 46.7444
lradius 141.216
lwrist 95.5823
lhand 26.5842 38.9741
lfingers 7.12502
lthumb 50.6115 59.8697
rfemur -17.8156 0.713586 20.8687
rtibia 51.072
rfoot -23.3284 -6.64522
rtoes -17.5768
lfemur -18.458 1.86876 -10.1016
ltibia 50.1049
lfoot -19.3818 -10.6331
ltoes -7.31171
983
root -0.0585655 14.9109 -0.894479 -4.79004 1.53674 -3.29638
lowerback 17.4404 0.689541 -10.5591
upperback 5.99367 -1.4049 -11.6499
thorax -3.32929 -0.667714 -6.36966
lowerneck -1.65446 -9.76991 -19.3049
upperneck 1.67038 -13.9556 25.0534
head 4.07403 -6.86199 10.3352
rclavicle -2.38542e-014 -1.39944e-013
rhumerus -19.3841 22.7788 1.20084
rradius 147.083
rwrist -68.4335
rhand 29.1472 12.89
rfingers 7.12502
rthumb 52.9387 -6.64116
lclavicle -2.38542e-014 -1.39944e-013
lhumerus -62.4646 -24.2026 46.6684
lradius 139.909
lwrist 95.2738
lhand 26.6882 38.6977
lfingers 7.12502
lthumb 50.7064 59.5415
rfemur -17.7788 0.910347 20.7406
rtibia 51.3671
rfoot -23.4315 -6.70228
rtoes -17.8264
lfemur -18.2718 2.07323 -10.2192
ltibia 50.2335
lfoot -19.4308 -10.7321
ltoes -7.6634
984
root -0.0572225 14.8944 -0.894063 -4.94029 1.44165 -3.02585
lowerback 17.4829 0.707541 -10.9696
upperback 6.07613 -1.44871 -11.733
thorax -3.25043 -0.693181 -6.2267
lowerneck -2.09439 -9.79918 -19.3686
upperneck 1.84522 -13.9569 25.0607
head 4.20789 -6.83 10.326
rclavicle 1.90833e-014 -4.13472e-014
rhumerus -18.1073 20.9144 2.34838
rradius 146.319
rwrist -70.091
rhand 29.3868 12.9397
rfingers 7.12502
rthumb 53.1548 -6.45416
lclavicle 1.90833e-014 -4.13472e-014
lhumerus -62.1221 -22.5498 46.4047
lradius 138.404
lwrist 95.0826
lhand 26.6264 38.7556
lfingers 7.12502
lthumb 50.6501 59.6302
rfemur -17.7732 1.05548 20.4753
rtibia 51.6662
rfoot -23.5468 -6.85087
rtoes -18.1339
lfemur -18.125 2.24637 -10.488
ltibia 50.3338
lfoot -19.4801 -10.8387
ltoes -7.73491
